<svg version="1.1" xmlns="http://www.w3.org/2000/svg" xmlns:xlink="http://www.w3.org/1999/xlink" width="64" height="64" viewBox="0,0,256,256"><defs><linearGradient x1="35.44" y1="16.727" x2="35.565" y2="57.748" gradientUnits="userSpaceOnUse" id="color-1"><stop offset="0" stop-color="#bdffc1"></stop><stop offset="1" stop-color="#789f7a"></stop></linearGradient><linearGradient x1="39.906" y1="8.652" x2="40.072" y2="63.277" gradientUnits="userSpaceOnUse" id="color-2"><stop offset="0" stop-color="#bdffc1"></stop><stop offset="1" stop-color="#789f7a"></stop></linearGradient><linearGradient x1="45.915" y1="10.68" x2="46.081" y2="65.181" gradientUnits="userSpaceOnUse" id="color-3"><stop offset="0" stop-color="#bdffc1"></stop><stop offset="1" stop-color="#789f7a"></stop></linearGradient><linearGradient x1="39.444" y1="11.691" x2="39.61" y2="66.191" gradientUnits="userSpaceOnUse" id="color-4"><stop offset="0" stop-color="#bdffc1"></stop><stop offset="1" stop-color="#789f7a"></stop></linearGradient><linearGradient x1="41.955" y1="12.63" x2="42.121" y2="67.256" gradientUnits="userSpaceOnUse" id="color-5"><stop offset="0" stop-color="#bdffc1"></stop><stop offset="1" stop-color="#789f7a"></stop></linearGradient><linearGradient x1="44.968" y1="13.643" x2="45.135" y2="68.144" gradientUnits="userSpaceOnUse" id="color-6"><stop offset="0" stop-color="#bdffc1"></stop><stop offset="1" stop-color="#789f7a"></stop></linearGradient><linearGradient x1="50.953" y1="13.623" x2="51.119" y2="68.134" gradientUnits="userSpaceOnUse" id="color-7"><stop offset="0" stop-color="#bdffc1"></stop><stop offset="1" stop-color="#789f7a"></stop></linearGradient><linearGradient x1="50.93" y1="13.654" x2="51.073" y2="60.494" gradientUnits="userSpaceOnUse" id="color-8"><stop offset="0" stop-color="#bdffc1"></stop><stop offset="1" stop-color="#789f7a"></stop></linearGradient><linearGradient x1="48.88" y1="1.647" x2="49.087" y2="69.703" gradientUnits="userSpaceOnUse" id="color-9"><stop offset="0" stop-color="#bdffc1"></stop><stop offset="1" stop-color="#789f7a"></stop></linearGradient><linearGradient x1="42.882" y1="12.766" x2="43.025" y2="59.694" gradientUnits="userSpaceOnUse" id="color-10"><stop offset="0" stop-color="#bdffc1"></stop><stop offset="1" stop-color="#789f7a"></stop></linearGradient><linearGradient x1="32.368" y1="6.359" x2="32.535" y2="60.984" gradientUnits="userSpaceOnUse" id="color-11"><stop offset="0" stop-color="#bdffc1"></stop><stop offset="1" stop-color="#789f7a"></stop></linearGradient><linearGradient x1="27.369" y1="6.379" x2="27.535" y2="61.004" gradientUnits="userSpaceOnUse" id="color-12"><stop offset="0" stop-color="#bdffc1"></stop><stop offset="1" stop-color="#789f7a"></stop></linearGradient><linearGradient x1="21.369" y1="6.404" x2="21.535" y2="61.029" gradientUnits="userSpaceOnUse" id="color-13"><stop offset="0" stop-color="#bdffc1"></stop><stop offset="1" stop-color="#789f7a"></stop></linearGradient><linearGradient x1="27.422" y1="16.759" x2="27.547" y2="57.759" gradientUnits="userSpaceOnUse" id="color-14"><stop offset="0" stop-color="#bdffc1"></stop><stop offset="1" stop-color="#789f7a"></stop></linearGradient><linearGradient x1="24.431" y1="16.768" x2="24.556" y2="57.769" gradientUnits="userSpaceOnUse" id="color-15"><stop offset="0" stop-color="#bdffc1"></stop><stop offset="1" stop-color="#789f7a"></stop></linearGradient><linearGradient x1="15.917" y1="13.796" x2="16.059" y2="60.221" gradientUnits="userSpaceOnUse" id="color-16"><stop offset="0" stop-color="#bdffc1"></stop><stop offset="1" stop-color="#789f7a"></stop></linearGradient><linearGradient x1="20.963" y1="16.764" x2="21.088" y2="57.805" gradientUnits="userSpaceOnUse" id="color-17"><stop offset="0" stop-color="#bdffc1"></stop><stop offset="1" stop-color="#789f7a"></stop></linearGradient><linearGradient x1="24.467" y1="16.768" x2="24.592" y2="57.768" gradientUnits="userSpaceOnUse" id="color-18"><stop offset="0" stop-color="#bdffc1"></stop><stop offset="1" stop-color="#789f7a"></stop></linearGradient><linearGradient x1="18.476" y1="15.26" x2="18.622" y2="63.051" gradientUnits="userSpaceOnUse" id="color-19"><stop offset="0" stop-color="#bdffc1"></stop><stop offset="1" stop-color="#789f7a"></stop></linearGradient><linearGradient x1="20.993" y1="15.644" x2="21.2" y2="83.71" gradientUnits="userSpaceOnUse" id="color-20"><stop offset="0" stop-color="#bdffc1"></stop><stop offset="1" stop-color="#789f7a"></stop></linearGradient><linearGradient x1="31.991" y1="15.583" x2="32.199" y2="83.751" gradientUnits="userSpaceOnUse" id="color-21"><stop offset="0" stop-color="#bdffc1"></stop><stop offset="1" stop-color="#789f7a"></stop></linearGradient><linearGradient x1="36.464" y1="15.278" x2="36.607" y2="62.092" gradientUnits="userSpaceOnUse" id="color-22"><stop offset="0" stop-color="#bdffc1"></stop><stop offset="1" stop-color="#789f7a"></stop></linearGradient><linearGradient x1="21.344" y1="3.893" x2="21.509" y2="58.023" gradientUnits="userSpaceOnUse" id="color-23"><stop offset="0" stop-color="#bdffc1"></stop><stop offset="1" stop-color="#789f7a"></stop></linearGradient><linearGradient x1="33.349" y1="3.398" x2="33.515" y2="57.982" gradientUnits="userSpaceOnUse" id="color-24"><stop offset="0" stop-color="#bdffc1"></stop><stop offset="1" stop-color="#789f7a"></stop></linearGradient><linearGradient x1="30.5" y1="6.781" x2="30.5" y2="57.29" gradientUnits="userSpaceOnUse" id="color-25"><stop offset="0" stop-color="#09e817"></stop><stop offset="1" stop-color="#077c04"></stop></linearGradient><linearGradient x1="33.5" y1="6.781" x2="33.5" y2="57.29" gradientUnits="userSpaceOnUse" id="color-26"><stop offset="0" stop-color="#09e817"></stop><stop offset="1" stop-color="#077c04"></stop></linearGradient><linearGradient x1="41" y1="6.781" x2="41" y2="57.29" gradientUnits="userSpaceOnUse" id="color-27"><stop offset="0" stop-color="#09e817"></stop><stop offset="1" stop-color="#077c04"></stop></linearGradient><linearGradient x1="49" y1="6.781" x2="49" y2="57.29" gradientUnits="userSpaceOnUse" id="color-28"><stop offset="0" stop-color="#09e817"></stop><stop offset="1" stop-color="#077c04"></stop></linearGradient><linearGradient x1="55.5" y1="6.781" x2="55.5" y2="57.29" gradientUnits="userSpaceOnUse" id="color-29"><stop offset="0" stop-color="#09e817"></stop><stop offset="1" stop-color="#077c04"></stop></linearGradient><linearGradient x1="55.5" y1="6.781" x2="55.5" y2="57.29" gradientUnits="userSpaceOnUse" id="color-30"><stop offset="0" stop-color="#09e817"></stop><stop offset="1" stop-color="#077c04"></stop></linearGradient><linearGradient x1="52.5" y1="6.781" x2="52.5" y2="57.29" gradientUnits="userSpaceOnUse" id="color-31"><stop offset="0" stop-color="#09e817"></stop><stop offset="1" stop-color="#077c04"></stop></linearGradient><linearGradient x1="39.5" y1="6.781" x2="39.5" y2="57.29" gradientUnits="userSpaceOnUse" id="color-32"><stop offset="0" stop-color="#09e817"></stop><stop offset="1" stop-color="#077c04"></stop></linearGradient><linearGradient x1="49" y1="6.781" x2="49" y2="57.29" gradientUnits="userSpaceOnUse" id="color-33"><stop offset="0" stop-color="#09e817"></stop><stop offset="1" stop-color="#077c04"></stop></linearGradient><linearGradient x1="44" y1="6.781" x2="44" y2="57.29" gradientUnits="userSpaceOnUse" id="color-34"><stop offset="0" stop-color="#09e817"></stop><stop offset="1" stop-color="#077c04"></stop></linearGradient><linearGradient x1="15" y1="6.781" x2="15" y2="57.29" gradientUnits="userSpaceOnUse" id="color-35"><stop offset="0" stop-color="#09e817"></stop><stop offset="1" stop-color="#077c04"></stop></linearGradient><linearGradient x1="21.5" y1="6.781" x2="21.5" y2="57.29" gradientUnits="userSpaceOnUse" id="color-36"><stop offset="0" stop-color="#09e817"></stop><stop offset="1" stop-color="#077c04"></stop></linearGradient><linearGradient x1="15" y1="6.781" x2="15" y2="57.29" gradientUnits="userSpaceOnUse" id="color-37"><stop offset="0" stop-color="#09e817"></stop><stop offset="1" stop-color="#077c04"></stop></linearGradient><linearGradient x1="18.5" y1="6.781" x2="18.5" y2="57.29" gradientUnits="userSpaceOnUse" id="color-38"><stop offset="0" stop-color="#09e817"></stop><stop offset="1" stop-color="#077c04"></stop></linearGradient><linearGradient x1="11.5" y1="6.781" x2="11.5" y2="57.29" gradientUnits="userSpaceOnUse" id="color-39"><stop offset="0" stop-color="#09e817"></stop><stop offset="1" stop-color="#077c04"></stop></linearGradient><linearGradient x1="16.5" y1="6.781" x2="16.5" y2="57.29" gradientUnits="userSpaceOnUse" id="color-40"><stop offset="0" stop-color="#09e817"></stop><stop offset="1" stop-color="#077c04"></stop></linearGradient><linearGradient x1="11.5" y1="6.781" x2="11.5" y2="57.29" gradientUnits="userSpaceOnUse" id="color-41"><stop offset="0" stop-color="#09e817"></stop><stop offset="1" stop-color="#077c04"></stop></linearGradient><linearGradient x1="8.5" y1="6.781" x2="8.5" y2="57.29" gradientUnits="userSpaceOnUse" id="color-42"><stop offset="0" stop-color="#09e817"></stop><stop offset="1" stop-color="#077c04"></stop></linearGradient><linearGradient x1="32" y1="6.781" x2="32" y2="57.29" gradientUnits="userSpaceOnUse" id="color-43"><stop offset="0" stop-color="#09e817"></stop><stop offset="1" stop-color="#077c04"></stop></linearGradient></defs><g transform="translate(-37.12,-37.12) scale(1.29,1.29)"><g fill="none" fill-rule="nonzero" stroke="none" stroke-width="1" stroke-linecap="butt" stroke-linejoin="miter" stroke-miterlimit="10" stroke-dasharray="" stroke-dashoffset="0" font-family="none" font-weight="none" font-size="none" text-anchor="none" style="mix-blend-mode: normal"><g transform="scale(4,4)"><path d="M32,32v3h3v3h4l-1,-3v-3h-3z" fill="url(#color-1)"></path><path d="M41,41l1,-3h-0.99l-3.01,-1v4z" fill="url(#color-2)"></path><path d="M44,35v4l4,-1l-1,-3z" fill="url(#color-3)"></path><path d="M38,32h3v-4l-3,1z" fill="url(#color-4)"></path><path d="M40,29h4v-3l-3,-1z" fill="url(#color-5)"></path><path d="M44,23l-1,3h4v-4z" fill="url(#color-6)"></path><path d="M47,26v3h4l1.57,1l1.43,-1h1l-1,-3z" fill="url(#color-7)"></path><path d="M51,32h-1h-2h-1v3h1l2,1l1,2h4l-1,-6v-1l-1.469,-1l-1.531,1z" fill="url(#color-8)"></path><path d="M47,38l-1,3h1l3,1l2,-1l-1,-3l-1,-1z" fill="url(#color-9)"></path><path d="M44,46v1v1h-3h-3v3l10,1l-1,-8h-3z" fill="url(#color-10)"></path><path d="M34,48h-3v3l3,1z" fill="url(#color-11)"></path><path d="M29,48h-3v3l3,1z" fill="url(#color-12)"></path><path d="M20,51l3,1v-4h-3z" fill="url(#color-13)"></path><rect x="26" y="41" width="3" height="3" fill="url(#color-14)"></rect><rect x="23" y="38" width="3" height="3" fill="url(#color-15)"></rect><path d="M16,47l4,1v-4h3v-3h-3v-3h-3v-3h3v-3l-3,-1l-4,1l-1,2l-2,1l-1,6l1,3z" fill="url(#color-16)"></path><path d="M23,29h-4l1,3h3z" fill="url(#color-17)"></path><rect x="23" y="26" width="3" height="3" fill="url(#color-18)"></rect><path d="M21,23l-1,-3l-1.501,-1l-1.499,1l-1,3l1,3h3z" fill="url(#color-19)"></path><path d="M23,16l-3,1l-1,3l2.563,1l1.437,-1z" fill="url(#color-20)"></path><path d="M35,21v-4l-6,-1v4h3z" fill="url(#color-21)"></path><path d="M34,27h5l-1,-7v-1l-3,1z" fill="url(#color-22)"></path><path d="M17,54l-1,3h4h3h3l1,-4z" fill="url(#color-23)"></path><path d="M28,53l1,4h3h3h3l1,-4z" fill="url(#color-24)"></path><g><path d="M41,14v-4v-3h-15v3h-3v3h-3v4h3h3h3h3h3v3h3v-6z" fill="url(#color-25)"></path><rect x="32" y="20" width="3" height="10" fill="url(#color-26)"></rect><path d="M41,20h-3v9h3v-3h3v-3h-3z" fill="url(#color-27)"></path><rect x="44" y="20" width="10" height="3" fill="url(#color-28)"></rect><rect x="54" y="23" width="3" height="6" fill="url(#color-29)"></rect><rect x="54" y="32" width="3" height="6" fill="url(#color-30)"></rect><rect x="51" y="29" width="3" height="2" fill="url(#color-31)"></rect><rect x="38" y="35" width="3" height="3" fill="url(#color-32)"></rect><rect x="47" y="35" width="4" height="3" fill="url(#color-33)"></rect><rect x="41" y="38" width="6" height="3" fill="url(#color-34)"></rect><rect x="13" y="54" width="4" height="3" fill="url(#color-35)"></rect><rect x="20" y="20" width="3" height="6" fill="url(#color-36)"></rect><rect x="13" y="20" width="4" height="6" fill="url(#color-37)"></rect><rect x="17" y="17" width="3" height="3" fill="url(#color-38)"></rect><rect x="10" y="26" width="3" height="3" fill="url(#color-39)"></rect><rect x="13" y="29" width="7" height="3" fill="url(#color-40)"></rect><rect x="10" y="32" width="3" height="3" fill="url(#color-41)"></rect><rect x="7" y="35" width="3" height="9" fill="url(#color-42)"></rect><path d="M13,48v3h4v3h9v3h3v-3h9v3h3v-3h6h4v-3v-7h3v-6h-3v3h-4v8h-3v2h-24v-4h-3v-3h-7v4z" fill="url(#color-43)"></path></g></g></g></g></svg>